<?xml version="1.0" standalone="no"?>
<!DOCTYPE svg PUBLIC "-//W3C//DTD SVG 20010904//EN"
 "http://www.w3.org/TR/2001/REC-SVG-20010904/DTD/svg10.dtd">
<svg version="1.0" xmlns="http://www.w3.org/2000/svg"
 width="225.000000pt" height="225.000000pt" viewBox="0 0 225.000000 225.000000"
 preserveAspectRatio="xMidYMid meet">

<g transform="translate(0.000000,225.000000) scale(0.100000,-0.100000)"
fill="#00eeff" stroke="none">
<path d="M1012 2110 c-375 -52 -604 -344 -579 -735 12 -179 80 -327 203 -445
123 -116 255 -168 455 -177 303 -14 543 114 659 352 56 117 74 210 68 364 -4
106 -10 140 -35 211 -37 108 -86 183 -173 263 -77 71 -159 116 -268 146 -86
24 -240 33 -330 21z m189 -463 c19 -12 45 -44 59 -72 20 -41 24 -64 25 -140 0
-79 -4 -97 -28 -147 -34 -70 -91 -104 -154 -92 -106 20 -164 194 -118 351 21
72 79 123 139 123 28 0 55 -8 77 -23z"/>
<path d="M630 586 c0 -3 397 -377 472 -445 l27 -23 238 222 c131 123 245 229
253 237 12 11 -66 13 -488 13 -276 0 -502 -2 -502 -4z"/>
</g>
</svg>
